<svg width="512" height="512" xmlns="http://www.w3.org/2000/svg">

 <g>
  <title>background</title>
  <rect fill="none" id="canvas_background" height="513.974" width="513.974" y="-1" x="-1"/>
 </g>
 <g>
  <title>Layer 1</title>
  <path fill="#ffffff" stroke="#ffffff" id="svg_3" d="m469.333,0l-426.666,0c-23.894,0 -42.667,18.773 -42.667,42.667l0,426.667c0,23.893 18.773,42.666 42.667,42.666l196.267,0l102.4,0l128,0c23.893,0 42.666,-18.773 42.666,-42.667l0,-426.666c0,-23.894 -18.773,-42.667 -42.667,-42.667zm-213.333,494.933l0,-170.666l-68.267,0l0,-68.267l68.267,0l0,-59.733c0,-48.64 37.547,-89.6 85.333,-93.867l76.8,0l0,68.267l-68.267,0c-14.507,0 -25.6,11.093 -25.6,25.6l0,59.733l85.334,0l0,68.267l-85.333,0l0,170.667l-68.267,0l0,-0.001zm238.933,-25.6c0,14.507 -11.093,25.6 -25.6,25.6l-128,0l0,-153.6l85.333,0l0,-102.4l-85.333,0l0,-42.667c0,-5.12 3.413,-8.533 8.533,-8.533l85.334,0l0,-102.4l-94.72,0c-57.173,5.12 -101.547,53.76 -101.547,110.933l0,42.667l-68.267,0l0,102.4l68.267,0l0,153.6l-196.266,0c-14.507,0 -25.6,-11.093 -25.6,-25.6l0,-426.666c0,-14.507 11.093,-25.6 25.6,-25.6l426.667,0c14.507,0 25.6,11.093 25.6,25.6l0,426.666l-0.001,0z"/>
 </g>
</svg>