<svg width="512.002" height="512.002" xmlns="http://www.w3.org/2000/svg">

 <g>
  <title>background</title>
  <rect fill="none" id="canvas_background" height="402" width="582" y="-1" x="-1"/>
 </g>
 <g>
  <title>Layer 1</title>
  <path fill="#eff2f0" id="svg_3" d="m488.469,104.211l-12.926,0l-4.444,-4.444c-7.474,-7.473 -17.409,-11.588 -27.977,-11.588l-25.352,0c-5.031,0 -10.07,-1.189 -14.57,-3.439l-55.667,-27.833c-3.705,-1.854 -8.21,-0.351 -10.062,3.354c-1.853,3.705 -0.351,8.21 3.354,10.062l55.667,27.833c6.572,3.287 13.93,5.023 21.278,5.023l25.354,0c6.561,0 12.73,2.555 17.37,7.195l6.641,6.641c1.406,1.407 3.314,2.197 5.303,2.197l16.032,0c4.705,0 8.532,3.828 8.532,8.532l0,8.533l-40.597,0c-12.976,0 -23.532,10.557 -23.532,23.532l0,0.516l-0.516,0c-9.125,0 -16.548,-7.423 -16.548,-16.548c0,-4.142 -3.358,-7.5 -7.5,-7.5c-4.142,0 -7.5,3.358 -7.5,7.5c0,15.2 10.805,27.922 25.138,30.892c-5.684,6.853 -9.106,15.646 -9.106,25.226c0,11.443 1.834,22.749 5.453,33.602l27.179,81.538c3.928,11.783 0.912,24.559 -7.871,33.341l-9.761,9.761l0,-13.958c0,-4.142 -3.358,-7.5 -7.5,-7.5c-4.142,0 -7.5,3.358 -7.5,7.5l0,34.815c0,6.561 -2.555,12.73 -7.195,17.37l-17.886,17.886l0,-46.022c0,-4.142 -3.358,-7.5 -7.5,-7.5c-4.142,0 -7.5,3.358 -7.5,7.5l0,16.549l-16.874,0c-13.508,0 -26.597,-4.842 -36.854,-13.633l-20.089,-17.219c-6.857,-5.877 -14.862,-10.437 -23.409,-13.373l0,-4.388c0,-4.142 -3.358,-7.5 -7.5,-7.5c-4.142,0 -7.5,3.358 -7.5,7.5l0,74.222c0,4.627 -1.956,8.993 -5.26,12.086l-39.692,-75.416c-6.682,-12.696 -6.244,-27.608 1.171,-39.89c7.415,-12.282 20.407,-19.615 34.754,-19.615l64.625,0c4.142,0 7.5,-3.358 7.5,-7.5c0,-1.931 -0.736,-3.686 -1.935,-5.015l0.006,-0.006c-32.988,-36.613 -72.703,-47.825 -100.211,-50.784c-9.524,-1.025 -18.235,-1.164 -25.713,-0.875l96.821,-79.735l0,48.602c0,17.142 8.112,33.616 21.699,44.067l85.438,65.722c1.363,1.048 2.971,1.556 4.567,1.556c2.249,0 4.473,-1.007 5.95,-2.928c2.525,-3.283 1.911,-7.992 -1.372,-10.518l-29.138,-22.414l0,-156.012c0,-4.142 -3.358,-7.5 -7.5,-7.5c-4.142,0 -7.5,3.358 -7.5,7.5l0,144.474l-41.3,-31.77c-9.921,-7.632 -15.845,-19.661 -15.845,-32.178l0,-64.495c0,-3.184 -2.01,-6.021 -5.014,-7.076l-296.597,-104.208c-3.583,-1.26 -7.542,0.36 -9.218,3.771c-1.674,3.41 -0.533,7.534 2.655,9.6c0.875,0.567 84.545,55.417 94.058,114.205l-2.664,0.307c-4.115,0.475 -7.065,4.195 -6.591,8.311c0.441,3.823 3.684,6.641 7.441,6.641c0.287,0 0.577,-0.016 0.869,-0.05l10.588,-1.222c53.778,16.558 59.594,60.648 60.166,72.67l-4.236,3.489c-3.197,2.633 -3.655,7.36 -1.021,10.558c1.483,1.801 3.63,2.732 5.794,2.732c1.678,0 3.367,-0.561 4.763,-1.71l6.006,-4.946c11.52,-2.308 72.825,-11.926 123.2,31.737l-93.893,0c-48.337,0 -87.662,39.325 -87.662,87.661l0,20.041c0,24.595 -20.009,44.605 -44.604,44.605c-24.595,0 -44.605,-20.01 -44.605,-44.605l0,-77.047c0,-11.062 -2.615,-22.139 -7.562,-32.033l-9.262,-18.524c-1.852,-3.705 -6.358,-5.208 -10.062,-3.354c-3.705,1.853 -5.207,6.357 -3.354,10.062l9.262,18.524c3.911,7.822 5.979,16.58 5.979,25.325l0,81.055c0,43.917 35.729,79.645 79.646,79.645c43.917,0 79.645,-35.729 79.645,-79.645l0,-8.017c0,-16.034 11.646,-29.39 26.921,-32.078c1.025,3.367 2.377,6.673 4.063,9.875l40.146,76.278l-22.137,12.65c-9.805,5.603 -15.896,16.099 -15.896,27.392l0,10.609l-12.543,0c-4.142,0 -7.5,3.358 -7.5,7.5c0,4.142 3.358,7.5 7.5,7.5l24.048,0c1.876,0 3.684,-0.703 5.067,-1.97c3.01,-2.758 8.051,-6.046 14.974,-6.046c6.923,0 11.964,3.288 14.974,6.046c1.44,1.319 3.255,1.97 5.065,1.97c2.029,0 4.053,-0.819 5.532,-2.433c2.798,-3.054 2.591,-7.798 -0.463,-10.597c-7.028,-6.44 -15.945,-9.986 -25.107,-9.986c-5.749,0 -11.399,1.401 -16.548,4.032l0,-6.625c0,-5.924 3.195,-11.429 8.338,-14.368l31.878,-18.216c9.805,-5.603 15.896,-16.099 15.896,-27.392l0,-53.721c4.929,2.219 9.548,5.136 13.647,8.649l20.089,17.219c12.974,11.121 29.529,17.245 46.616,17.245l16.874,0l0,81.193l-12.541,0c-4.142,0 -7.5,3.358 -7.5,7.5c0,4.142 3.358,7.5 7.5,7.5l24.048,0c1.876,0 3.684,-0.703 5.067,-1.971c3.01,-2.758 8.051,-6.045 14.974,-6.045c6.923,0 11.963,3.288 14.973,6.045c1.439,1.319 3.255,1.971 5.065,1.971c2.029,0 4.052,-0.819 5.531,-2.433c2.799,-3.054 2.592,-7.798 -0.462,-10.596c-7.027,-6.44 -15.944,-9.987 -25.107,-9.987c-5.749,0 -11.399,1.401 -16.548,4.032l0,-31.348c0,-6.562 2.555,-12.73 7.194,-17.37l21.298,-21.298c7.387,-7.386 11.486,-17.18 11.58,-27.612l20.377,-20.376c12.826,-12.826 17.23,-31.483 11.495,-48.691l-27.179,-81.539c-3.107,-9.321 -4.683,-19.03 -4.683,-28.864c0,-13.545 11.02,-24.564 24.564,-24.564l32.064,0c4.142,0 7.5,-3.358 7.5,-7.5c0,-4.142 -3.358,-7.5 -7.5,-7.5l-40.597,0l0,-0.516c0,-4.705 3.828,-8.532 8.532,-8.532l48.097,0c4.142,0 7.5,-3.358 7.5,-7.5l0,-16.033c0,-12.976 -10.557,-23.532 -23.533,-23.532zm-314.555,91.976c-5.935,-13.204 -16.973,-29.407 -37.384,-41.559l72.238,-8.335c4.115,-0.475 7.065,-4.195 6.591,-8.311c-0.476,-4.114 -4.194,-7.069 -8.311,-6.591l-94.664,10.923c-5.868,-38.002 -37.391,-73.069 -63.678,-96.354l222.185,78.065l-31.787,3.668c-4.115,0.475 -7.065,4.195 -6.591,8.311c0.441,3.823 3.684,6.641 7.441,6.641c0.287,0 0.577,-0.016 0.869,-0.05l38.893,-4.488l-98.703,81.285c-1.14,-6.51 -3.239,-14.616 -7.099,-23.205zm25.952,133.169c-22.419,3.832 -39.542,23.392 -39.542,46.887l0,8.017c0,35.646 -29,64.645 -64.646,64.645c-13.58,0 -26.196,-4.209 -36.61,-11.391c5.262,1.525 10.823,2.343 16.57,2.343c32.866,0 59.604,-26.739 59.604,-59.605l0,-20.041c0,-40.065 32.596,-72.661 72.662,-72.661l9.568,0c-3.649,3.441 -6.875,7.411 -9.562,11.862c-5.59,9.259 -8.278,19.609 -8.044,29.944z"/>
  <path fill="#eff2f0" id="svg_6" d="m448.469,112.227l-0.08,0c-4.142,0 -7.46,3.358 -7.46,7.5c0,4.142 3.398,7.5 7.54,7.5c4.142,0 7.5,-3.358 7.5,-7.5c0,-4.142 -3.358,-7.5 -7.5,-7.5z"/>
 </g>
</svg>