<svg width="23.999999999999996" height="23.999999999999996" xmlns="http://www.w3.org/2000/svg">

 <g>
  <title>background</title>
  <rect fill="none" id="canvas_background" height="720.599447" width="720.599447" y="-1" x="-1"/>
 </g>
 <g>
  <title>Layer 1</title>
  <path fill="#ffffff" id="svg_1" clip-rule="evenodd" fill-rule="evenodd" d="m21.231,0l-18.462,0c-1.529,0 -2.769,1.24 -2.769,2.769l0,18.46c0,1.531 1.24,2.771 2.769,2.771l18.463,0c1.529,0 2.768,-1.24 2.768,-2.771l0,-18.46c0,-1.529 -1.239,-2.769 -2.769,-2.769zm-9.231,7.385c2.549,0 4.616,2.065 4.616,4.615c0,2.549 -2.067,4.616 -4.616,4.616s-4.615,-2.068 -4.615,-4.616c0,-2.55 2.066,-4.615 4.615,-4.615zm9,12.693c0,0.509 -0.413,0.922 -0.924,0.922l-16.152,0c-0.511,0 -0.924,-0.413 -0.924,-0.922l0,-10.078l1.897,0c-0.088,0.315 -0.153,0.64 -0.2,0.971c-0.05,0.337 -0.081,0.679 -0.081,1.029c0,4.079 3.306,7.385 7.384,7.385s7.384,-3.306 7.384,-7.385c0,-0.35 -0.031,-0.692 -0.081,-1.028c-0.047,-0.331 -0.112,-0.656 -0.2,-0.971l1.897,0l0,10.077zm0,-13.98c0,0.509 -0.413,0.923 -0.924,0.923l-2.174,0c-0.511,0 -0.923,-0.414 -0.923,-0.923l0,-2.175c0,-0.51 0.412,-0.923 0.923,-0.923l2.174,0c0.511,0 0.924,0.413 0.924,0.923l0,2.175z"/>
 </g>
</svg>