<svg width="50" height="50" xmlns="http://www.w3.org/2000/svg">

 <g>
  <title>background</title>
  <rect fill="none" id="canvas_background" height="513.974" width="513.974" y="-1" x="-1"/>
 </g>
 <g>
  <title>Layer 1</title>
  <path fill="#ffffff" stroke="null" id="svg_6" d="m6.173025,3.033551l6.334774,-2.748676l9.000993,16.404732l-6.069712,2.788181c-1.19835,2.617688 4.808994,13.075964 7.343794,13.248536c0.200468,-0.120592 5.949431,-2.761151 5.949431,-2.761151l9.154684,16.492057s-6.156581,2.81521 -6.357048,2.902536c-17.509726,7.466336 -42.545895,-37.961672 -25.356917,-46.326214zm4.298915,2.648876l-2.278648,1.047907c-11.791946,5.742696 9.303921,44.047432 21.49012,38.851561l2.162822,-0.985531l-5.058464,-9.113047l-2.28533,1.03959c-7.04532,3.216492 -18.40292,-17.088782 -11.259594,-20.662893l2.243009,-1.033353l-5.013916,-9.144235zm17.445131,15.903649l6.497376,1.808887c0.496714,-1.553148 0.356387,-3.283026 -0.53458,-4.817461c-0.888739,-1.536514 -2.365517,-2.592738 -4.02717,-3.054316l-1.935625,6.062889zm4.018261,-12.597753c3.454724,0.960581 6.517423,3.152037 8.366179,6.343579c1.850984,3.193621 2.13832,6.784365 1.109254,10.007094l-3.998214,-1.112361c0.723911,-2.268386 0.518988,-4.79459 -0.784051,-7.042183c-1.298584,-2.247594 -3.454724,-3.788266 -5.887063,-4.461921l1.193896,-3.734208zm2.116046,-6.624268c5.267842,1.465822 9.940963,4.807065 12.760873,9.680663c2.826592,4.871519 3.265394,10.350159 1.695064,15.269499l-4.098448,-1.139391c1.256263,-3.940046 0.904331,-8.329196 -1.35427,-12.229738c-2.263056,-3.902621 -6.005117,-6.580605 -10.226072,-7.753263l1.222852,-3.827771z"/>
 </g>
</svg>