<svg width="511.27099999999996" height="511.27099999999996" xmlns="http://www.w3.org/2000/svg">

 <g>
  <title>background</title>
  <rect fill="none" id="canvas_background" height="720.599447" width="720.599447" y="-1" x="-1"/>
 </g>
 <g>
  <title>Layer 1</title>
  <path fill="#ffffff" id="svg_3" d="m508.342,94.243c-2.603,-2.603 -6.942,-3.471 -10.414,-2.603l-17.356,6.075c10.414,-12.149 17.356,-25.166 21.695,-37.315c1.736,-4.339 0.868,-7.81 -1.736,-10.414c-2.603,-2.603 -6.942,-3.471 -10.414,-1.736c-24.298,10.414 -45.125,19.092 -62.481,24.298c0,0.868 -0.868,0 -1.736,0c-13.885,-7.81 -47.729,-25.166 -72.027,-25.166c-61.614,0.868 -111.078,52.936 -111.078,116.285l0,3.471c-90.251,-17.356 -139.715,-43.39 -193.519,-99.797l-8.676,-8.678l-5.207,10.414c-29.505,56.407 -8.678,107.607 25.166,142.319c-15.62,-2.603 -26.034,-7.81 -35.58,-15.62c-3.471,-2.603 -7.81,-3.471 -12.149,-0.868c-3.471,1.736 -5.207,6.942 -4.339,11.281c12.149,40.786 42.522,73.763 75.498,93.722c-15.62,0 -28.637,-1.736 -41.654,-10.414c-3.471,-1.736 -8.678,-1.736 -12.149,0.868s-5.207,6.942 -3.471,11.281c15.62,44.258 45.993,67.688 94.59,73.763c-25.166,14.753 -58.142,26.902 -109.342,27.77c-5.207,0 -9.546,3.471 -11.281,7.81c-1.736,5.207 0,9.546 3.471,13.017c31.241,25.166 100.664,39.919 186.576,39.919c152.732,0 277.695,-136.244 277.695,-303.729l0,-2.603c19.092,-9.546 34.712,-27.77 42.522,-52.936c0.867,-3.472 -0.001,-7.811 -2.604,-10.414zm-52.068,49.464l-5.207,1.736l0,14.753c0,157.939 -117.153,286.373 -260.339,286.373c-78.97,0 -131.905,-13.017 -160.542,-26.902c59.878,-4.339 94.59,-23.431 121.492,-44.258l21.695,-15.62l-26.034,0c-49.464,0 -79.837,-13.885 -97.193,-46.861c15.62,5.207 32.108,5.207 50.332,4.339c6.942,-0.868 13.885,-0.868 20.827,-0.868l2.603,-17.356c-32.976,-9.546 -72.027,-39.051 -91.119,-78.969c17.356,7.81 36.447,9.546 53.803,9.546l26.902,0l-21.694,-15.621c-18.224,-13.017 -72.027,-59.01 -45.993,-124.963c55.539,54.671 108.475,79.837 203.932,97.193l10.414,1.736l0,-24.298c0,-53.803 41.654,-98.061 93.722,-98.929c19.959,-0.868 52.936,17.356 62.481,22.563c5.207,2.603 10.414,3.471 15.62,1.736c13.017,-4.339 28.637,-10.414 45.993,-17.356c-7.81,13.017 -18.224,25.166 -32.108,36.448c-3.471,2.603 -4.339,7.81 -2.603,12.149c1.736,4.339 6.942,6.075 11.281,4.339l33.844,-11.281c-6.075,11.28 -15.621,24.297 -32.109,30.371z"/>
 </g>
</svg>